<svg width="12" height="21" viewBox="0 0 12 21" fill="none" xmlns="http://www.w3.org/2000/svg">
<path d="M11.5303 2.03033C11.8232 1.73744 11.8232 1.26256 11.5303 0.96967C11.2374 0.676777 10.7626 0.676777 10.4697 0.96967L11.5303 2.03033ZM2 10.5L1.46967 9.96967L0.93934 10.5L1.46967 11.0303L2 10.5ZM10.4697 20.0303C10.7626 20.3232 11.2374 20.3232 11.5303 20.0303C11.8232 19.7374 11.8232 19.2626 11.5303 18.9697L10.4697 20.0303ZM10.4697 0.96967L1.46967 9.96967L2.53033 11.0303L11.5303 2.03033L10.4697 0.96967ZM1.46967 11.0303L10.4697 20.0303L11.5303 18.9697L2.53033 9.96967L1.46967 11.0303Z" fill="#BABABA"/>
</svg>
