<svg width="180" height="67" viewBox="0 0 180 67" fill="none" xmlns="http://www.w3.org/2000/svg">
<path d="M17.8592 4.6H11.3092V19H6.88418V4.6H0.33418V1.35H17.8592V4.6ZM18.517 10.175C18.517 8.525 18.817 7.08333 19.417 5.85C20.017 4.6 20.8253 3.625 21.842 2.925C22.8753 2.20833 24.0087 1.675 25.242 1.325C26.492 0.974999 27.8253 0.799999 29.242 0.799999C30.692 0.799999 32.0337 0.958332 33.267 1.275C34.517 1.59167 35.667 2.09167 36.717 2.775C37.7837 3.45833 38.6253 4.41667 39.242 5.65C39.8587 6.88333 40.167 8.33333 40.167 10C40.167 12.9667 39.2253 15.3083 37.342 17.025C35.4753 18.725 32.8253 19.575 29.392 19.575C25.9587 19.575 23.2837 18.725 21.367 17.025C19.467 15.325 18.517 13.0417 18.517 10.175ZM23.067 10.3C23.067 11.05 23.1837 11.775 23.417 12.475C23.6503 13.1583 24.0003 13.8083 24.467 14.425C24.9503 15.025 25.6087 15.5083 26.442 15.875C27.292 16.225 28.2587 16.4 29.342 16.4C30.442 16.4 31.4003 16.225 32.217 15.875C33.0337 15.5083 33.6503 15.0833 34.067 14.6C34.5003 14.1 34.842 13.5333 35.092 12.9C35.3587 12.2667 35.517 11.75 35.567 11.35C35.6337 10.9333 35.667 10.55 35.667 10.2C35.667 8.5 35.1087 7.04167 33.992 5.825C32.892 4.59167 31.342 3.975 29.342 3.975C27.3087 3.975 25.7503 4.60833 24.667 5.875C23.6003 7.125 23.067 8.6 23.067 10.3ZM62.4422 19H58.0172V4.6H49.6922V6.6C49.6922 8.28333 49.6589 9.675 49.5922 10.775C49.5255 11.8583 49.4005 12.9083 49.2172 13.925C49.0339 14.9417 48.7755 15.7417 48.4422 16.325C48.1089 16.8917 47.6589 17.4 47.0922 17.85C46.5255 18.2833 45.8422 18.5833 45.0422 18.75C44.2422 18.9167 43.2755 19 42.1422 19H41.6422V15.75H42.1422C42.6755 15.75 43.1172 15.7 43.4672 15.6C43.8339 15.5 44.1422 15.2833 44.3922 14.95C44.6589 14.6 44.8589 14.2167 44.9922 13.8C45.1255 13.3833 45.2339 12.7417 45.3172 11.875C45.4005 11.0083 45.4505 10.1333 45.4672 9.25C45.4839 8.36667 45.4922 7.15 45.4922 5.6V1.35H62.4422V19ZM66.2902 1.35H70.7152V8H75.6902C76.2402 8 76.7236 7.925 77.1402 7.775C77.5736 7.60833 77.9152 7.425 78.1652 7.225C78.4152 7.025 78.6486 6.725 78.8652 6.325C79.0986 5.925 79.2569 5.6 79.3402 5.35C79.4402 5.1 79.5652 4.725 79.7152 4.225C80.0986 3.04167 80.5402 2.08333 81.0402 1.35H85.6152C85.4486 1.55 85.2902 1.75833 85.1402 1.975C85.0069 2.175 84.8819 2.38333 84.7652 2.6C84.6486 2.81667 84.5402 3.00833 84.4402 3.175C84.3569 3.34167 84.2652 3.55 84.1652 3.8C84.0819 4.03333 84.0152 4.20833 83.9652 4.325C83.9319 4.44167 83.8736 4.61667 83.7902 4.85C83.7236 5.08333 83.6819 5.225 83.6652 5.275C83.6319 5.35833 83.5652 5.55 83.4652 5.85C83.3652 6.15 83.2902 6.36667 83.2402 6.5C83.2069 6.61667 83.1319 6.81667 83.0152 7.1C82.9152 7.36667 82.8152 7.56667 82.7152 7.7C82.6319 7.83333 82.5069 8.00833 82.3402 8.225C82.1902 8.425 82.0319 8.59167 81.8652 8.725C81.6986 8.84167 81.4986 8.96667 81.2652 9.1C81.0319 9.21667 80.7819 9.31667 80.5152 9.4C80.9319 9.48333 81.3152 9.61667 81.6652 9.8C82.0152 9.96667 82.3069 10.1417 82.5402 10.325C82.7736 10.4917 82.9902 10.7417 83.1902 11.075C83.4069 11.4083 83.5652 11.675 83.6652 11.875C83.7819 12.075 83.8986 12.3917 84.0152 12.825C84.1486 13.2583 84.2319 13.5583 84.2652 13.725C84.3152 13.875 84.3902 14.175 84.4902 14.625C84.8402 16.0917 85.4652 17.55 86.3652 19H81.7902C81.1069 18.0167 80.5986 16.8 80.2652 15.35C80.1652 14.9167 80.0902 14.625 80.0402 14.475C80.0069 14.325 79.9236 14.0583 79.7902 13.675C79.6736 13.2917 79.5569 13.025 79.4402 12.875C79.3402 12.7083 79.1736 12.5 78.9402 12.25C78.7236 11.9833 78.4819 11.8 78.2152 11.7C77.9652 11.5833 77.6486 11.4833 77.2652 11.4C76.8819 11.3 76.4569 11.25 75.9902 11.25H70.7152V19H66.2902V1.35ZM75.928 51.6H69.378V66H64.953V51.6H58.403V48.35H75.928V51.6ZM76.5858 57.175C76.5858 55.525 76.8858 54.0833 77.4858 52.85C78.0858 51.6 78.8942 50.625 79.9108 49.925C80.9442 49.2083 82.0775 48.675 83.3108 48.325C84.5608 47.975 85.8942 47.8 87.3108 47.8C88.7608 47.8 90.1025 47.9583 91.3358 48.275C92.5858 48.5917 93.7358 49.0917 94.7858 49.775C95.8525 50.4583 96.6942 51.4167 97.3108 52.65C97.9275 53.8833 98.2358 55.3333 98.2358 57C98.2358 59.9667 97.2942 62.3083 95.4108 64.025C93.5442 65.725 90.8942 66.575 87.4608 66.575C84.0275 66.575 81.3525 65.725 79.4358 64.025C77.5358 62.325 76.5858 60.0417 76.5858 57.175ZM81.1358 57.3C81.1358 58.05 81.2525 58.775 81.4858 59.475C81.7192 60.1583 82.0692 60.8083 82.5358 61.425C83.0192 62.025 83.6775 62.5083 84.5108 62.875C85.3608 63.225 86.3275 63.4 87.4108 63.4C88.5108 63.4 89.4692 63.225 90.2858 62.875C91.1025 62.5083 91.7192 62.0833 92.1358 61.6C92.5692 61.1 92.9108 60.5333 93.1608 59.9C93.4275 59.2667 93.5858 58.75 93.6358 58.35C93.7025 57.9333 93.7358 57.55 93.7358 57.2C93.7358 55.5 93.1775 54.0417 92.0608 52.825C90.9608 51.5917 89.4108 50.975 87.4108 50.975C85.3775 50.975 83.8192 51.6083 82.7358 52.875C81.6692 54.125 81.1358 55.6 81.1358 57.3ZM120.511 66H116.086V51.6H107.761V53.6C107.761 55.2833 107.728 56.675 107.661 57.775C107.594 58.8583 107.469 59.9083 107.286 60.925C107.103 61.9417 106.844 62.7417 106.511 63.325C106.178 63.8917 105.728 64.4 105.161 64.85C104.594 65.2833 103.911 65.5833 103.111 65.75C102.311 65.9167 101.344 66 100.211 66H99.711V62.75H100.211C100.744 62.75 101.186 62.7 101.536 62.6C101.903 62.5 102.211 62.2833 102.461 61.95C102.728 61.6 102.928 61.2167 103.061 60.8C103.194 60.3833 103.303 59.7417 103.386 58.875C103.469 58.0083 103.519 57.1333 103.536 56.25C103.553 55.3667 103.561 54.15 103.561 52.6V48.35H120.511V66ZM124.359 48.35H128.784V55H133.759C134.309 55 134.792 54.925 135.209 54.775C135.642 54.6083 135.984 54.425 136.234 54.225C136.484 54.025 136.717 53.725 136.934 53.325C137.167 52.925 137.326 52.6 137.409 52.35C137.509 52.1 137.634 51.725 137.784 51.225C138.167 50.0417 138.609 49.0833 139.109 48.35H143.684C143.517 48.55 143.359 48.7583 143.209 48.975C143.076 49.175 142.951 49.3833 142.834 49.6C142.717 49.8167 142.609 50.0083 142.509 50.175C142.426 50.3417 142.334 50.55 142.234 50.8C142.151 51.0333 142.084 51.2083 142.034 51.325C142.001 51.4417 141.942 51.6167 141.859 51.85C141.792 52.0833 141.751 52.225 141.734 52.275C141.701 52.3583 141.634 52.55 141.534 52.85C141.434 53.15 141.359 53.3667 141.309 53.5C141.276 53.6167 141.201 53.8167 141.084 54.1C140.984 54.3667 140.884 54.5667 140.784 54.7C140.701 54.8333 140.576 55.0083 140.409 55.225C140.259 55.425 140.101 55.5917 139.934 55.725C139.767 55.8417 139.567 55.9667 139.334 56.1C139.101 56.2167 138.851 56.3167 138.584 56.4C139.001 56.4833 139.384 56.6167 139.734 56.8C140.084 56.9667 140.376 57.1417 140.609 57.325C140.842 57.4917 141.059 57.7417 141.259 58.075C141.476 58.4083 141.634 58.675 141.734 58.875C141.851 59.075 141.967 59.3917 142.084 59.825C142.217 60.2583 142.301 60.5583 142.334 60.725C142.384 60.875 142.459 61.175 142.559 61.625C142.909 63.0917 143.534 64.55 144.434 66H139.859C139.176 65.0167 138.667 63.8 138.334 62.35C138.234 61.9167 138.159 61.625 138.109 61.475C138.076 61.325 137.992 61.0583 137.859 60.675C137.742 60.2917 137.626 60.025 137.509 59.875C137.409 59.7083 137.242 59.5 137.009 59.25C136.792 58.9833 136.551 58.8 136.284 58.7C136.034 58.5833 135.717 58.4833 135.334 58.4C134.951 58.3 134.526 58.25 134.059 58.25H128.784V66H124.359V48.35Z" fill="#B79D6B"/>
<path d="M87.975 10.175C87.975 8.525 88.275 7.08333 88.875 5.85C89.475 4.6 90.2833 3.625 91.3 2.925C92.3333 2.20833 93.4667 1.675 94.7 1.325C95.95 0.974999 97.2833 0.799999 98.7 0.799999C100.15 0.799999 101.492 0.958332 102.725 1.275C103.975 1.59167 105.125 2.09167 106.175 2.775C107.242 3.45833 108.083 4.41667 108.7 5.65C109.317 6.88333 109.625 8.33333 109.625 10C109.625 12.9667 108.683 15.3083 106.8 17.025C104.933 18.725 102.283 19.575 98.85 19.575C95.4167 19.575 92.7417 18.725 90.825 17.025C88.925 15.325 87.975 13.0417 87.975 10.175ZM92.525 10.3C92.525 11.05 92.6417 11.775 92.875 12.475C93.1083 13.1583 93.4583 13.8083 93.925 14.425C94.4083 15.025 95.0667 15.5083 95.9 15.875C96.75 16.225 97.7167 16.4 98.8 16.4C99.9 16.4 100.858 16.225 101.675 15.875C102.492 15.5083 103.108 15.0833 103.525 14.6C103.958 14.1 104.3 13.5333 104.55 12.9C104.817 12.2667 104.975 11.75 105.025 11.35C105.092 10.9333 105.125 10.55 105.125 10.2C105.125 8.5 104.567 7.04167 103.45 5.825C102.35 4.59167 100.8 3.975 98.8 3.975C96.7667 3.975 95.2083 4.60833 94.125 5.875C93.0583 7.125 92.525 8.6 92.525 10.3ZM112.75 1.35H124.2C124.867 1.35 125.417 1.36667 125.85 1.4C126.284 1.43333 126.842 1.56667 127.525 1.8C128.209 2.01667 128.75 2.35 129.15 2.8C129.817 3.55 130.15 4.50833 130.15 5.675C130.15 7.54167 129.175 8.79167 127.225 9.425C129.759 10.0083 131.034 11.4917 131.05 13.875C131.05 15.1083 130.792 16.1 130.275 16.85C129.942 17.35 129.559 17.7583 129.125 18.075C128.709 18.3917 128.217 18.6167 127.65 18.75C127.1 18.8667 126.65 18.9417 126.3 18.975C125.95 18.9917 125.475 19 124.875 19H112.75V1.35ZM117.125 8.275H123.775C125.192 8.275 125.9 7.625 125.9 6.325C125.884 5.04167 125.184 4.4 123.8 4.4H117.125V8.275ZM117.125 15.9H124.025C125.775 15.9 126.65 15.1 126.65 13.5C126.65 12.0667 125.867 11.35 124.3 11.35H117.125V15.9ZM134.088 19V1.35H138.513V8H144.588C146.055 8 147.23 8.11667 148.113 8.35C148.996 8.58333 149.78 9.09167 150.463 9.875C151.246 10.775 151.638 11.975 151.638 13.475C151.638 14.7417 151.38 15.7917 150.863 16.625C150.296 17.5917 149.53 18.2333 148.563 18.55C147.613 18.85 146.446 19 145.063 19H134.088ZM138.513 15.925H144.913C145.73 15.925 146.313 15.675 146.663 15.175C147.03 14.675 147.213 14.1 147.213 13.45C147.213 12.3667 146.813 11.6583 146.013 11.325C145.613 11.1583 144.896 11.075 143.863 11.075H138.513V15.925ZM158.238 19H153.813V1.35H158.238V19ZM179.041 19H162.091V1.35H178.541V4.525H166.516V8.5H178.141V11.65H166.516V15.85H179.041V19ZM32.2204 66H27.7954V51.6H17.8954V66H13.4704V48.35H32.2204V66ZM35.2528 57.175C35.2528 55.525 35.5528 54.0833 36.1528 52.85C36.7528 51.6 37.5612 50.625 38.5778 49.925C39.6112 49.2083 40.7445 48.675 41.9778 48.325C43.2278 47.975 44.5612 47.8 45.9778 47.8C47.4278 47.8 48.7695 47.9583 50.0028 48.275C51.2528 48.5917 52.4028 49.0917 53.4528 49.775C54.5195 50.4583 55.3612 51.4167 55.9778 52.65C56.5945 53.8833 56.9028 55.3333 56.9028 57C56.9028 59.9667 55.9612 62.3083 54.0778 64.025C52.2112 65.725 49.5612 66.575 46.1278 66.575C42.6945 66.575 40.0195 65.725 38.1028 64.025C36.2028 62.325 35.2528 60.0417 35.2528 57.175ZM39.8028 57.3C39.8028 58.05 39.9195 58.775 40.1528 59.475C40.3862 60.1583 40.7362 60.8083 41.2028 61.425C41.6862 62.025 42.3445 62.5083 43.1778 62.875C44.0278 63.225 44.9945 63.4 46.0778 63.4C47.1778 63.4 48.1362 63.225 48.9528 62.875C49.7695 62.5083 50.3862 62.0833 50.8028 61.6C51.2362 61.1 51.5778 60.5333 51.8278 59.9C52.0945 59.2667 52.2528 58.75 52.3028 58.35C52.3695 57.9333 52.4028 57.55 52.4028 57.2C52.4028 55.5 51.8445 54.0417 50.7278 52.825C49.6278 51.5917 48.0778 50.975 46.0778 50.975C44.0445 50.975 42.4862 51.6083 41.4028 52.875C40.3362 54.125 39.8028 55.6 39.8028 57.3ZM146.869 66V48.35H151.069V59.65L162.319 50.35V48.35H166.519V66H162.319V54.6L151.069 63.9V66H146.869Z" fill="white"/>
</svg>
