<svg width="34" height="36" viewBox="0 0 34 36" fill="none" xmlns="http://www.w3.org/2000/svg">
<path d="M28.5947 22.5206C27.3659 21.2361 25.8319 21.2361 24.6109 22.5206C23.6795 23.4984 22.7481 24.4763 21.8324 25.4707C21.582 25.7442 21.3706 25.8022 21.0654 25.6199C20.4627 25.2718 19.821 24.9901 19.2418 24.6089C16.5416 22.8106 14.2797 20.4986 12.276 17.8965C11.282 16.6038 10.3976 15.2199 9.77931 13.6619C9.65409 13.347 9.67757 13.1399 9.92019 12.883C10.8516 11.93 11.7595 10.9521 12.6752 9.97427C13.9509 8.61523 13.9509 7.02415 12.6674 5.65682C11.9395 4.87785 11.2116 4.11546 10.4837 3.3365C9.73235 2.54096 8.98882 1.73714 8.22963 0.949884C7.00084 -0.318006 5.46681 -0.318006 4.24584 0.958171C3.30664 1.93602 2.40657 2.93873 1.45171 3.9C0.567299 4.7867 0.121178 5.87228 0.0272574 7.14017C-0.12145 9.2036 0.355978 11.151 1.02907 13.0487C2.40657 16.9767 4.50412 20.4654 7.0478 23.6642C10.4837 27.9899 14.5849 31.4124 19.3827 33.8819C21.5428 34.9923 23.7813 35.8458 26.2154 35.9867C27.8903 36.0862 29.346 35.6387 30.5122 34.2548C31.3105 33.3101 32.2106 32.4482 33.0559 31.545C34.3082 30.2025 34.316 28.5783 33.0715 27.2524C31.5845 25.6696 30.0896 24.0951 28.5947 22.5206Z" fill="#B79D6B"/>
</svg>
