<svg width="123" height="45" viewBox="0 0 123 45" fill="none" xmlns="http://www.w3.org/2000/svg">
<path d="M12.4442 3.208H7.99024V13H4.98124V3.208H0.527242V0.997999H12.4442V3.208ZM12.8916 6.999C12.8916 5.877 13.0956 4.89667 13.5036 4.058C13.9116 3.208 14.4612 2.545 15.1526 2.069C15.8552 1.58167 16.6259 1.219 17.4646 0.981C18.3146 0.742999 19.2212 0.623999 20.1846 0.623999C21.1706 0.623999 22.0829 0.731666 22.9216 0.946999C23.7716 1.16233 24.5536 1.50233 25.2676 1.967C25.9929 2.43167 26.5652 3.08333 26.9846 3.922C27.4039 4.76067 27.6136 5.74667 27.6136 6.88C27.6136 8.89733 26.9732 10.4897 25.6926 11.657C24.4232 12.813 22.6212 13.391 20.2866 13.391C17.9519 13.391 16.1329 12.813 14.8296 11.657C13.5376 10.501 12.8916 8.94833 12.8916 6.999ZM15.9856 7.084C15.9856 7.594 16.0649 8.087 16.2236 8.563C16.3822 9.02767 16.6202 9.46967 16.9376 9.889C17.2662 10.297 17.7139 10.6257 18.2806 10.875C18.8586 11.113 19.5159 11.232 20.2526 11.232C21.0006 11.232 21.6522 11.113 22.2076 10.875C22.7629 10.6257 23.1822 10.3367 23.4656 10.008C23.7602 9.668 23.9926 9.28267 24.1626 8.852C24.3439 8.42133 24.4516 8.07 24.4856 7.798C24.5309 7.51467 24.5536 7.254 24.5536 7.016C24.5536 5.86 24.1739 4.86833 23.4146 4.041C22.6666 3.20233 21.6126 2.783 20.2526 2.783C18.8699 2.783 17.8102 3.21367 17.0736 4.075C16.3482 4.925 15.9856 5.928 15.9856 7.084ZM42.7607 13H39.7517V3.208H34.0907V4.568C34.0907 5.71267 34.068 6.659 34.0227 7.407C33.9774 8.14367 33.8924 8.85767 33.7677 9.549C33.643 10.2403 33.4674 10.7843 33.2407 11.181C33.014 11.5663 32.708 11.912 32.3227 12.218C31.9374 12.5127 31.4727 12.7167 30.9287 12.83C30.3847 12.9433 29.7274 13 28.9567 13H28.6167V10.79H28.9567C29.3194 10.79 29.6197 10.756 29.8577 10.688C30.107 10.62 30.3167 10.4727 30.4867 10.246C30.668 10.008 30.804 9.74733 30.8947 9.464C30.9854 9.18067 31.059 8.74433 31.1157 8.155C31.1724 7.56567 31.2064 6.97067 31.2177 6.37C31.229 5.76933 31.2347 4.942 31.2347 3.888V0.997999H42.7607V13ZM45.3774 0.997999H48.3864V5.52H51.7694C52.1434 5.52 52.472 5.469 52.7554 5.367C53.05 5.25367 53.2824 5.129 53.4524 4.993C53.6224 4.857 53.781 4.653 53.9284 4.381C54.087 4.109 54.1947 3.888 54.2514 3.718C54.3194 3.548 54.4044 3.293 54.5064 2.953C54.767 2.14833 55.0674 1.49667 55.4074 0.997999H58.5184C58.405 1.134 58.2974 1.27567 58.1954 1.423C58.1047 1.559 58.0197 1.70067 57.9404 1.848C57.861 1.99533 57.7874 2.12567 57.7194 2.239C57.6627 2.35233 57.6004 2.494 57.5324 2.664C57.4757 2.82267 57.4304 2.94167 57.3964 3.021C57.3737 3.10033 57.334 3.21933 57.2774 3.378C57.232 3.53667 57.2037 3.633 57.1924 3.667C57.1697 3.72367 57.1244 3.854 57.0564 4.058C56.9884 4.262 56.9374 4.40933 56.9034 4.5C56.8807 4.57933 56.8297 4.71533 56.7504 4.908C56.6824 5.08933 56.6144 5.22533 56.5464 5.316C56.4897 5.40667 56.4047 5.52567 56.2914 5.673C56.1894 5.809 56.0817 5.92233 55.9684 6.013C55.855 6.09233 55.719 6.17733 55.5604 6.268C55.4017 6.34733 55.2317 6.41533 55.0504 6.472C55.3337 6.52867 55.5944 6.61933 55.8324 6.744C56.0704 6.85733 56.2687 6.97633 56.4274 7.101C56.586 7.21433 56.7334 7.38433 56.8694 7.611C57.0167 7.83767 57.1244 8.019 57.1924 8.155C57.2717 8.291 57.351 8.50633 57.4304 8.801C57.521 9.09567 57.5777 9.29967 57.6004 9.413C57.6344 9.515 57.6854 9.719 57.7534 10.025C57.9914 11.0223 58.4164 12.014 59.0284 13H55.9174C55.4527 12.3313 55.107 11.504 54.8804 10.518C54.8124 10.2233 54.7614 10.025 54.7274 9.923C54.7047 9.821 54.648 9.63967 54.5574 9.379C54.478 9.11833 54.3987 8.937 54.3194 8.835C54.2514 8.72167 54.138 8.58 53.9794 8.41C53.832 8.22867 53.6677 8.104 53.4864 8.036C53.3164 7.95667 53.101 7.88867 52.8404 7.832C52.5797 7.764 52.2907 7.73 51.9734 7.73H48.3864V13H45.3774V0.997999ZM51.9311 34.208H47.4771V44H44.4681V34.208H40.0141V31.998H51.9311V34.208ZM52.3784 37.999C52.3784 36.877 52.5824 35.8967 52.9904 35.058C53.3984 34.208 53.948 33.545 54.6394 33.069C55.342 32.5817 56.1127 32.219 56.9514 31.981C57.8014 31.743 58.708 31.624 59.6714 31.624C60.6574 31.624 61.5697 31.7317 62.4084 31.947C63.2584 32.1623 64.0404 32.5023 64.7544 32.967C65.4797 33.4317 66.052 34.0833 66.4714 34.922C66.8907 35.7607 67.1004 36.7467 67.1004 37.88C67.1004 39.8973 66.46 41.4897 65.1794 42.657C63.91 43.813 62.108 44.391 59.7734 44.391C57.4387 44.391 55.6197 43.813 54.3164 42.657C53.0244 41.501 52.3784 39.9483 52.3784 37.999ZM55.4724 38.084C55.4724 38.594 55.5517 39.087 55.7104 39.563C55.869 40.0277 56.107 40.4697 56.4244 40.889C56.753 41.297 57.2007 41.6257 57.7674 41.875C58.3454 42.113 59.0027 42.232 59.7394 42.232C60.4874 42.232 61.139 42.113 61.6944 41.875C62.2497 41.6257 62.669 41.3367 62.9524 41.008C63.247 40.668 63.4794 40.2827 63.6494 39.852C63.8307 39.4213 63.9384 39.07 63.9724 38.798C64.0177 38.5147 64.0404 38.254 64.0404 38.016C64.0404 36.86 63.6607 35.8683 62.9014 35.041C62.1534 34.2023 61.0994 33.783 59.7394 33.783C58.3567 33.783 57.297 34.2137 56.5604 35.075C55.835 35.925 55.4724 36.928 55.4724 38.084ZM82.2475 44H79.2385V34.208H73.5775V35.568C73.5775 36.7127 73.5548 37.659 73.5095 38.407C73.4642 39.1437 73.3792 39.8577 73.2545 40.549C73.1298 41.2403 72.9542 41.7843 72.7275 42.181C72.5008 42.5663 72.1948 42.912 71.8095 43.218C71.4242 43.5127 70.9595 43.7167 70.4155 43.83C69.8715 43.9433 69.2142 44 68.4435 44H68.1035V41.79H68.4435C68.8062 41.79 69.1065 41.756 69.3445 41.688C69.5938 41.62 69.8035 41.4727 69.9735 41.246C70.1548 41.008 70.2908 40.7473 70.3815 40.464C70.4722 40.1807 70.5458 39.7443 70.6025 39.155C70.6592 38.5657 70.6932 37.9707 70.7045 37.37C70.7158 36.7693 70.7215 35.942 70.7215 34.888V31.998H82.2475V44ZM84.8642 31.998H87.8732V36.52H91.2562C91.6302 36.52 91.9588 36.469 92.2422 36.367C92.5368 36.2537 92.7692 36.129 92.9392 35.993C93.1092 35.857 93.2678 35.653 93.4152 35.381C93.5738 35.109 93.6815 34.888 93.7382 34.718C93.8062 34.548 93.8912 34.293 93.9932 33.953C94.2538 33.1483 94.5542 32.4967 94.8942 31.998H98.0052C97.8918 32.134 97.7842 32.2757 97.6822 32.423C97.5915 32.559 97.5065 32.7007 97.4272 32.848C97.3478 32.9953 97.2742 33.1257 97.2062 33.239C97.1495 33.3523 97.0872 33.494 97.0192 33.664C96.9625 33.8227 96.9172 33.9417 96.8832 34.021C96.8605 34.1003 96.8208 34.2193 96.7642 34.378C96.7188 34.5367 96.6905 34.633 96.6792 34.667C96.6565 34.7237 96.6112 34.854 96.5432 35.058C96.4752 35.262 96.4242 35.4093 96.3902 35.5C96.3675 35.5793 96.3165 35.7153 96.2372 35.908C96.1692 36.0893 96.1012 36.2253 96.0332 36.316C95.9765 36.4067 95.8915 36.5257 95.7782 36.673C95.6762 36.809 95.5685 36.9223 95.4552 37.013C95.3418 37.0923 95.2058 37.1773 95.0472 37.268C94.8885 37.3473 94.7185 37.4153 94.5372 37.472C94.8205 37.5287 95.0812 37.6193 95.3192 37.744C95.5572 37.8573 95.7555 37.9763 95.9142 38.101C96.0728 38.2143 96.2202 38.3843 96.3562 38.611C96.5035 38.8377 96.6112 39.019 96.6792 39.155C96.7585 39.291 96.8378 39.5063 96.9172 39.801C97.0078 40.0957 97.0645 40.2997 97.0872 40.413C97.1212 40.515 97.1722 40.719 97.2402 41.025C97.4782 42.0223 97.9032 43.014 98.5152 44H95.4042C94.9395 43.3313 94.5938 42.504 94.3672 41.518C94.2992 41.2233 94.2482 41.025 94.2142 40.923C94.1915 40.821 94.1348 40.6397 94.0442 40.379C93.9648 40.1183 93.8855 39.937 93.8062 39.835C93.7382 39.7217 93.6248 39.58 93.4662 39.41C93.3188 39.2287 93.1545 39.104 92.9732 39.036C92.8032 38.9567 92.5878 38.8887 92.3272 38.832C92.0665 38.764 91.7775 38.73 91.4602 38.73H87.8732V44H84.8642V31.998Z" fill="#B79D6B"/>
<path d="M60.123 6.999C60.123 5.877 60.327 4.89667 60.735 4.058C61.143 3.208 61.6927 2.545 62.384 2.069C63.0867 1.58167 63.8573 1.219 64.696 0.981C65.546 0.742999 66.4527 0.623999 67.416 0.623999C68.402 0.623999 69.3143 0.731666 70.153 0.946999C71.003 1.16233 71.785 1.50233 72.499 1.967C73.2243 2.43167 73.7967 3.08333 74.216 3.922C74.6353 4.76067 74.845 5.74667 74.845 6.88C74.845 8.89733 74.2047 10.4897 72.924 11.657C71.6547 12.813 69.8527 13.391 67.518 13.391C65.1833 13.391 63.3643 12.813 62.061 11.657C60.769 10.501 60.123 8.94833 60.123 6.999ZM63.217 7.084C63.217 7.594 63.2963 8.087 63.455 8.563C63.6137 9.02767 63.8517 9.46967 64.169 9.889C64.4977 10.297 64.9453 10.6257 65.512 10.875C66.09 11.113 66.7473 11.232 67.484 11.232C68.232 11.232 68.8837 11.113 69.439 10.875C69.9943 10.6257 70.4137 10.3367 70.697 10.008C70.9917 9.668 71.224 9.28267 71.394 8.852C71.5753 8.42133 71.683 8.07 71.717 7.798C71.7623 7.51467 71.785 7.254 71.785 7.016C71.785 5.86 71.4053 4.86833 70.646 4.041C69.898 3.20233 68.844 2.783 67.484 2.783C66.1013 2.783 65.0417 3.21367 64.305 4.075C63.5797 4.925 63.217 5.928 63.217 7.084ZM76.9701 0.997999H84.7561C85.2095 0.997999 85.5835 1.00933 85.8781 1.032C86.1728 1.05467 86.5525 1.14533 87.0171 1.304C87.4818 1.45133 87.8501 1.678 88.1221 1.984C88.5755 2.494 88.8021 3.14567 88.8021 3.939C88.8021 5.20833 88.1391 6.05833 86.8131 6.489C88.5358 6.88567 89.4028 7.89433 89.4141 9.515C89.4141 10.3537 89.2385 11.028 88.8871 11.538C88.6605 11.878 88.3998 12.1557 88.1051 12.371C87.8218 12.5863 87.4875 12.7393 87.1021 12.83C86.7281 12.9093 86.4221 12.9603 86.1841 12.983C85.9461 12.9943 85.6231 13 85.2151 13H76.9701V0.997999ZM79.9451 5.707H84.4671C85.4305 5.707 85.9121 5.265 85.9121 4.381C85.9008 3.50833 85.4248 3.072 84.4841 3.072H79.9451V5.707ZM79.9451 10.892H84.6371C85.8271 10.892 86.4221 10.348 86.4221 9.26C86.4221 8.28533 85.8895 7.798 84.8241 7.798H79.9451V10.892ZM91.4799 13V0.997999H94.4889V5.52H98.6199C99.6172 5.52 100.416 5.59933 101.017 5.758C101.618 5.91667 102.15 6.26233 102.615 6.795C103.148 7.407 103.414 8.223 103.414 9.243C103.414 10.1043 103.238 10.8183 102.887 11.385C102.502 12.0423 101.98 12.4787 101.323 12.694C100.677 12.898 99.8836 13 98.9429 13H91.4799ZM94.4889 10.909H98.8409C99.3962 10.909 99.7929 10.739 100.031 10.399C100.28 10.059 100.405 9.668 100.405 9.226C100.405 8.48933 100.133 8.00767 99.5889 7.781C99.3169 7.66767 98.8296 7.611 98.1269 7.611H94.4889V10.909ZM107.902 13H104.893V0.997999H107.902V13ZM122.048 13H110.522V0.997999H121.708V3.157H113.531V5.86H121.436V8.002H113.531V10.858H122.048V13ZM22.2099 44H19.2009V34.208H12.4689V44H9.45988V31.998H22.2099V44ZM24.2719 37.999C24.2719 36.877 24.4759 35.8967 24.8839 35.058C25.2919 34.208 25.8416 33.545 26.5329 33.069C27.2356 32.5817 28.0063 32.219 28.8449 31.981C29.6949 31.743 30.6016 31.624 31.5649 31.624C32.5509 31.624 33.4633 31.7317 34.3019 31.947C35.1519 32.1623 35.9339 32.5023 36.6479 32.967C37.3733 33.4317 37.9456 34.0833 38.3649 34.922C38.7843 35.7607 38.9939 36.7467 38.9939 37.88C38.9939 39.8973 38.3536 41.4897 37.0729 42.657C35.8036 43.813 34.0016 44.391 31.6669 44.391C29.3323 44.391 27.5133 43.813 26.2099 42.657C24.9179 41.501 24.2719 39.9483 24.2719 37.999ZM27.3659 38.084C27.3659 38.594 27.4453 39.087 27.6039 39.563C27.7626 40.0277 28.0006 40.4697 28.3179 40.889C28.6466 41.297 29.0943 41.6257 29.6609 41.875C30.2389 42.113 30.8963 42.232 31.6329 42.232C32.3809 42.232 33.0326 42.113 33.5879 41.875C34.1433 41.6257 34.5626 41.3367 34.8459 41.008C35.1406 40.668 35.3729 40.2827 35.5429 39.852C35.7243 39.4213 35.8319 39.07 35.8659 38.798C35.9113 38.5147 35.9339 38.254 35.9339 38.016C35.9339 36.86 35.5543 35.8683 34.7949 35.041C34.0469 34.2023 32.9929 33.783 31.6329 33.783C30.2503 33.783 29.1906 34.2137 28.4539 35.075C27.7286 35.925 27.3659 36.928 27.3659 38.084ZM100.171 44V31.998H103.027V39.682L110.677 33.358V31.998H113.533V44H110.677V36.248L103.027 42.572V44H100.171Z" fill="black"/>
</svg>
