<svg width="22" height="23" viewBox="0 0 22 23" fill="none" xmlns="http://www.w3.org/2000/svg">
<path d="M18.5024 14.3881C17.7073 13.5675 16.7147 13.5675 15.9247 14.3881C15.322 15.0129 14.7194 15.6376 14.1269 16.2729C13.9648 16.4477 13.8281 16.4847 13.6306 16.3682C13.2406 16.1459 12.8253 15.9659 12.4506 15.7223C10.7034 14.5734 9.23978 13.0963 7.94331 11.4339C7.30014 10.608 6.72787 9.72379 6.32779 8.72845C6.24676 8.52727 6.26195 8.39491 6.41895 8.23078C7.0216 7.62193 7.60907 6.99719 8.20159 6.37245C9.02708 5.50417 9.02708 4.48765 8.19653 3.61408C7.72554 3.11641 7.25456 2.62932 6.78358 2.13165C6.2974 1.62339 5.81629 1.10984 5.32505 0.60687C4.52995 -0.20317 3.53735 -0.20317 2.74731 0.612165C2.13959 1.2369 1.55719 1.87752 0.939345 2.49167C0.367076 3.05817 0.0784091 3.75173 0.0176372 4.56177C-0.0785851 5.88007 0.230339 7.12425 0.665871 8.33667C1.55719 10.8462 2.91443 13.0751 4.56034 15.1188C6.78358 17.8824 9.43729 20.069 12.5417 21.6467C13.9395 22.3562 15.3879 22.9015 16.9629 22.9915C18.0466 23.055 18.9886 22.7691 19.7432 21.885C20.2598 21.2814 20.8422 20.7308 21.3891 20.1537C22.1994 19.296 22.2045 18.2583 21.3992 17.4112C20.437 16.4 19.4697 15.3941 18.5024 14.3881Z" fill="white"/>
</svg>
