<svg width="47" height="41" viewBox="0 0 47 41" fill="none" xmlns="http://www.w3.org/2000/svg">
<path d="M35 31C38.3137 31 41 28.3137 41 25C41 21.6863 38.3137 19 35 19C31.6863 19 29 21.6863 29 25C29 28.3137 31.6863 31 35 31Z" fill="#B79D6B"/>
<path d="M44.8836 0.741211H2.11644C1.82034 0.741211 1.53637 0.858836 1.327 1.06821C1.11762 1.27758 1 1.56155 1 1.85765V33.2371C1 33.5332 1.11762 33.8171 1.327 34.0265C1.53637 34.2359 1.82034 34.3535 2.11644 34.3535H29.7074V39.6231C29.7071 39.8174 29.7578 40.0083 29.8544 40.1768C29.9511 40.3453 30.0903 40.4855 30.2582 40.5832C30.4287 40.6866 30.6245 40.7407 30.8239 40.7395C31.0114 40.7376 31.1956 40.689 31.3597 40.5981L34.8951 38.6406L38.4231 40.5981C38.593 40.6928 38.7847 40.7414 38.9792 40.7392C39.1737 40.737 39.3642 40.684 39.5319 40.5855C39.6996 40.4869 39.8387 40.3463 39.9353 40.1775C40.032 40.0087 40.0828 39.8176 40.0829 39.6231V34.3535H44.8836C45.1797 34.3535 45.4636 34.2359 45.673 34.0265C45.8824 33.8171 46 33.5332 46 33.2371V1.85765C46 1.56155 45.8824 1.27758 45.673 1.06821C45.4636 0.858836 45.1797 0.741211 44.8836 0.741211ZM34.8951 30.0068C33.9528 30.0068 33.0316 29.7277 32.2477 29.2048C31.4638 28.6819 30.8523 27.9385 30.4903 27.0685C30.1283 26.1984 30.0321 25.2407 30.2138 24.316C30.3955 23.3914 30.8469 22.5413 31.5112 21.8729C32.1755 21.2045 33.0228 20.7477 33.9463 20.5603C34.8698 20.3729 35.8281 20.4631 36.7004 20.8197C37.5726 21.1762 38.3198 21.7831 38.8476 22.5637C39.3754 23.3444 39.6602 24.2638 39.6661 25.2061C39.669 25.8349 39.5478 26.458 39.3095 27.0399C39.0711 27.6217 38.7203 28.1508 38.2771 28.5968C37.8338 29.0427 37.307 29.3969 36.7266 29.6388C36.1463 29.8808 35.5239 30.0059 34.8951 30.0068ZM35.4087 36.3705C35.2435 36.2793 35.0578 36.2315 34.8691 36.2315C34.6804 36.2315 34.4947 36.2793 34.3295 36.3705L31.918 37.7103V31.5773C32.842 32.0135 33.851 32.2397 34.8728 32.2397C35.8946 32.2397 36.9037 32.0135 37.8277 31.5773V37.7252L35.4087 36.3705ZM43.7448 32.1057H40.0829V29.925C40.994 28.9204 41.5939 27.673 41.8097 26.3341C42.0255 24.9952 41.848 23.6225 41.2986 22.3825C40.7493 21.1426 39.8517 20.0888 38.715 19.3492C37.5783 18.6095 36.2513 18.2158 34.8951 18.2158C33.539 18.2158 32.212 18.6095 31.0752 19.3492C29.9385 20.0888 29.041 21.1426 28.4917 22.3825C27.9423 23.6225 27.7648 24.9952 27.9806 26.3341C28.1964 27.673 28.7963 28.9204 29.7074 29.925V32.1206H3.23288V2.97409H43.7671L43.7448 32.1057ZM15.7593 8.78702C15.7593 8.49093 15.877 8.20696 16.0863 7.99758C16.2957 7.78821 16.5797 7.67058 16.8758 7.67058H30.1242C30.4203 7.67058 30.7043 7.78821 30.9137 7.99758C31.123 8.20696 31.2407 8.49093 31.2407 8.78702C31.2407 9.08312 31.123 9.36709 30.9137 9.57647C30.7043 9.78584 30.4203 9.90347 30.1242 9.90347H16.8758C16.5797 9.90347 16.2957 9.78584 16.0863 9.57647C15.877 9.36709 15.7593 9.08312 15.7593 8.78702ZM7.19997 13.7217C7.19997 13.4256 7.31759 13.1416 7.52697 12.9322C7.73634 12.7229 8.02031 12.6052 8.31641 12.6052H38.6836C38.9797 12.6052 39.2637 12.7229 39.473 12.9322C39.6824 13.1416 39.8 13.4256 39.8 13.7217C39.8 14.0178 39.6824 14.3018 39.473 14.5111C39.2637 14.7205 38.9797 14.8381 38.6836 14.8381H8.31641C8.02031 14.8381 7.73634 14.7205 7.52697 14.5111C7.31759 14.3018 7.19997 14.0178 7.19997 13.7217ZM7.19997 18.6563C7.19997 18.3603 7.31759 18.0763 7.52697 17.8669C7.73634 17.6575 8.02031 17.5399 8.31641 17.5399H26.0306C26.3267 17.5399 26.6107 17.6575 26.82 17.8669C27.0294 18.0763 27.147 18.3603 27.147 18.6563C27.147 18.9524 27.0294 19.2364 26.82 19.4458C26.6107 19.6552 26.3267 19.7728 26.0306 19.7728H8.31641C8.02031 19.7728 7.73634 19.6552 7.52697 19.4458C7.31759 19.2364 7.19997 18.9524 7.19997 18.6563ZM7.19997 23.5836C7.19997 23.2875 7.31759 23.0035 7.52697 22.7941C7.73634 22.5848 8.02031 22.4671 8.31641 22.4671H24.542C24.8381 22.4671 25.1221 22.5848 25.3315 22.7941C25.5408 23.0035 25.6585 23.2875 25.6585 23.5836C25.6585 23.8797 25.5408 24.1636 25.3315 24.373C25.1221 24.5824 24.8381 24.7 24.542 24.7H8.31641C8.02031 24.7 7.73634 24.5824 7.52697 24.373C7.31759 24.1636 7.19997 23.8797 7.19997 23.5836Z" fill="#DEDEDE" stroke="white" stroke-width="0.4"/>
</svg>
