<svg width="45" height="44" viewBox="0 0 45 44" fill="none" xmlns="http://www.w3.org/2000/svg">
<g clip-path="url(#clip0_200_266)">
<path d="M22.2012 35.7686C30.3754 35.7686 37.002 29.4182 37.002 21.5845C37.002 13.7508 30.3754 7.40039 22.2012 7.40039C14.0269 7.40039 7.40039 13.7508 7.40039 21.5845C7.40039 29.4182 14.0269 35.7686 22.2012 35.7686Z" fill="#B79D6B"/>
<path d="M22.5 5.83305C19.3916 5.83305 16.3529 6.75481 13.7684 8.48176C11.1838 10.2087 9.16936 12.6633 7.97982 15.5351C6.79027 18.4069 6.47903 21.567 7.08545 24.6157C7.69188 27.6644 9.18874 30.4649 11.3867 32.6628C13.5847 34.8608 16.3851 36.3577 19.4339 36.9641C22.4826 37.5706 25.6426 37.2593 28.5145 36.0698C31.3863 34.8802 33.8409 32.8658 35.5678 30.2812C37.2948 27.6966 38.2165 24.658 38.2165 21.5496C38.2118 17.3827 36.5545 13.3879 33.6081 10.4415C30.6617 7.49513 26.6668 5.83777 22.5 5.83305ZM22.5 35.6288C19.7154 35.6288 16.9933 34.8031 14.678 33.256C12.3627 31.709 10.5581 29.5101 9.49248 26.9375C8.42685 24.3648 8.14804 21.534 8.69129 18.8029C9.23454 16.0718 10.5755 13.5631 12.5445 11.5941C14.5135 9.62504 17.0222 8.28412 19.7533 7.74087C22.4844 7.19762 25.3152 7.47643 27.8879 8.54206C30.4605 9.60768 32.6594 11.4123 34.2065 13.7276C35.7535 16.0429 36.5792 18.765 36.5792 21.5496C36.575 25.2823 35.0903 28.861 32.4509 31.5005C29.8114 34.1399 26.2328 35.6246 22.5 35.6288ZM42.7511 25.4517C43.8048 24.3533 45 23.1093 45 21.5496C45 19.9898 43.8048 18.7459 42.7511 17.6474C42.0719 17.0452 41.5178 16.3153 41.1202 15.4993C40.9482 14.567 40.9624 13.6099 41.1618 12.6832C41.3688 11.1338 41.583 9.53087 40.7033 8.32132C39.8144 7.10056 38.2147 6.80953 36.6669 6.52849C35.7343 6.43546 34.8294 6.15829 34.0047 5.71303C33.3377 5.07258 32.8039 4.30667 32.4338 3.4593C31.6846 2.06269 30.9111 0.618026 29.4539 0.145585C28.0589 -0.307699 26.6126 0.383811 25.2168 1.05297C24.3817 1.53868 23.4581 1.85264 22.5 1.97641C21.5417 1.85274 20.6179 1.53881 19.7827 1.05305C18.3868 0.383893 16.9425 -0.308272 15.5459 0.145667C14.0887 0.618108 13.315 2.06277 12.5661 3.45865C12.1956 4.30605 11.6618 5.07214 10.9952 5.71312C10.1704 6.15793 9.26572 6.43507 8.33333 6.52857C6.78559 6.80994 5.18547 7.10097 4.2965 8.32255C3.41703 9.53055 3.63094 11.1335 3.83806 12.6836C4.03766 13.6103 4.05179 14.5674 3.87965 15.4997C3.48221 16.3157 2.9282 17.0456 2.24915 17.6478C1.19481 18.7451 0 19.9898 0 21.5496C0 23.1093 1.19522 24.3541 2.24931 25.4517C2.92837 26.054 3.48237 26.7839 3.87981 27.5999C4.05195 28.5321 4.03782 29.4892 3.83822 30.416C3.63119 31.9661 3.41727 33.569 4.29666 34.7778C5.18563 35.9986 6.78535 36.2896 8.33259 36.5707C9.26517 36.6639 10.17 36.941 10.9948 37.3861C11.6615 38.0271 12.1953 38.7932 12.5657 39.6406C13.3149 41.0365 14.0884 42.4813 15.5456 42.9536C16.9418 43.4077 18.3869 42.7154 19.7827 42.0462C20.6179 41.5604 21.5418 41.2465 22.5 41.1228C23.4582 41.2464 24.3821 41.5604 25.2173 42.0461C26.2266 42.6309 27.3506 42.9901 28.512 43.099C28.8319 43.1007 29.15 43.0516 29.4545 42.9535C30.9111 42.4811 31.685 41.0364 32.4344 39.6398C32.8044 38.7924 33.3383 38.0265 34.0053 37.386C34.8299 36.9412 35.7344 36.6641 36.6667 36.5706C38.2144 36.2892 39.8141 35.9982 40.7032 34.7778C41.5833 33.5682 41.3691 31.9653 41.162 30.4151C40.9627 29.4887 40.9485 28.5321 41.1204 27.6002C41.5179 26.7841 42.072 26.0541 42.7511 25.4517ZM39.5629 27.0946C39.2982 28.2577 39.29 29.4645 39.5389 30.6311C39.7035 31.8615 39.8731 33.1342 39.379 33.813C38.8761 34.5045 37.6042 34.7355 36.3738 34.9591C35.1958 35.0793 34.0583 35.4556 33.0409 36.0615C32.1616 36.836 31.4621 37.7931 30.9911 38.866C30.3954 39.9772 29.7791 41.1261 28.9492 41.3956C28.1706 41.6458 27.0314 41.099 25.9249 40.5688C24.876 39.9619 23.707 39.5922 22.5 39.4855C21.2928 39.5925 20.1237 39.9625 19.0747 40.5695C17.969 41.1003 16.8266 41.6464 16.0512 41.3963C15.2209 41.1269 14.605 39.978 14.0089 38.8667C13.5378 37.7937 12.8379 36.8366 11.9583 36.0622C10.941 35.4563 9.80366 35.0801 8.62575 34.9598C7.3954 34.7359 6.12347 34.5041 5.62058 33.8141C5.12694 33.1354 5.2968 31.8627 5.46111 30.6323C5.71023 29.4654 5.70204 28.2581 5.43712 27.0947C4.97861 26.0339 4.2936 25.0862 3.43013 24.3182C2.54869 23.3997 1.63729 22.4506 1.63729 21.5496C1.63729 20.6486 2.54869 19.6994 3.43013 18.7811C4.2936 18.013 4.97861 17.0654 5.43712 16.0046C5.70204 14.8411 5.71023 13.6339 5.46111 12.4669C5.2968 11.2365 5.12694 9.96386 5.62058 9.28585C6.12347 8.59434 7.39581 8.36332 8.62616 8.13975C9.80406 8.01952 10.9415 7.64328 11.9587 7.03736C12.8383 6.263 13.5382 5.30585 14.0093 4.23284C14.605 3.12161 15.2209 1.97272 16.0515 1.70322C16.823 1.45223 17.9686 1.99908 19.0747 2.53006C20.1237 3.13696 21.2928 3.50683 22.5 3.6137C23.7071 3.50676 24.8761 3.13674 25.9249 2.52965C27.0314 1.99957 28.1762 1.4528 28.9492 1.70281C29.7791 1.97223 30.3954 3.12112 30.9911 4.23243C31.4621 5.30531 32.1616 6.26244 33.0409 7.03695C34.0583 7.64275 35.1958 8.01898 36.3738 8.13934C37.605 8.36324 38.8769 8.59508 39.3797 9.28503C39.8731 9.96377 39.7035 11.2364 39.5389 12.4669C39.29 13.6338 39.2982 14.841 39.5629 16.0045C40.0214 17.0652 40.7062 18.0128 41.5695 18.781C42.4513 19.6994 43.3627 20.6486 43.3627 21.5496C43.3627 22.4506 42.4513 23.3997 41.5699 24.3181C40.7065 25.0862 40.0215 26.0339 39.5629 27.0946ZM31.0542 18.2832L25.6907 17.4357L23.3482 12.5363C23.2823 12.3986 23.1792 12.2821 23.0506 12.1999C22.922 12.1177 22.773 12.0731 22.6203 12.071H22.6099C22.459 12.071 22.3109 12.1128 22.1822 12.1916C22.0534 12.2705 21.949 12.3834 21.8804 12.5179L19.4163 17.357L14.034 18.071C13.8826 18.0911 13.7399 18.1531 13.6219 18.2501C13.5039 18.347 13.4154 18.4751 13.3664 18.6197C13.3174 18.7643 13.3098 18.9197 13.3445 19.0685C13.3791 19.2172 13.4547 19.3532 13.5627 19.4612L17.4037 23.3003L16.4192 28.6398C16.3914 28.7901 16.4063 28.9451 16.4621 29.0873C16.5179 29.2296 16.6123 29.3534 16.7348 29.4447C16.8573 29.5361 17.0029 29.5913 17.1552 29.6042C17.3075 29.6171 17.4603 29.5871 17.5964 29.5176L22.4336 27.0509L27.208 29.6371C27.3423 29.7101 27.4944 29.7441 27.6469 29.735C27.7995 29.726 27.9465 29.6744 28.0713 29.5861C28.196 29.4978 28.2936 29.3763 28.3528 29.2354C28.412 29.0945 28.4306 28.9399 28.4064 28.789L27.5558 23.4262L31.4907 19.6849C31.6013 19.5797 31.6802 19.4456 31.7186 19.2978C31.7569 19.15 31.7532 18.9944 31.7078 18.8486C31.6624 18.7029 31.5771 18.5727 31.4616 18.4728C31.3461 18.373 31.205 18.3071 31.0542 18.2832ZM26.1151 22.5361C26.019 22.6277 25.9466 22.7412 25.9041 22.867C25.8617 22.9927 25.8504 23.1269 25.8713 23.258L26.5293 27.4072L22.8356 25.4061C22.7189 25.3427 22.5885 25.3087 22.4557 25.3071C22.3228 25.3054 22.1916 25.3361 22.0733 25.3966L18.3303 27.3057L19.0921 23.1741C19.1162 23.0436 19.1082 22.9092 19.0688 22.7824C19.0294 22.6557 18.9597 22.5404 18.8659 22.4466L15.8942 19.4758L20.059 18.9234C20.1905 18.906 20.3159 18.8569 20.4243 18.7803C20.5327 18.7037 20.6208 18.6019 20.6811 18.4837L22.5875 14.7398L24.3994 18.5301C24.4567 18.6498 24.5422 18.7537 24.6486 18.833C24.755 18.9122 24.8791 18.9644 25.0102 18.985L29.1607 19.6413L26.1151 22.5361Z" fill="#DEDEDE"/>
</g>
<defs>
<clipPath id="clip0_200_266">
<rect width="45" height="44" fill="white"/>
</clipPath>
</defs>
</svg>
